<?xml version="1.0" encoding="UTF-8"?>
<svg version="1.1" xmlns="http://www.w3.org/2000/svg" width="1081" height="1081">
<path d="M0 0 C6.13453407 2.22187453 10.53142129 7.85902664 14.85644531 12.51708984 C17.27876542 15.0140194 19.82206562 17.32749045 22.40283203 19.66064453 C32.44261238 28.79898769 41.94054988 38.51678313 51.52783203 48.12402344 C54.32470194 50.92662484 57.12608804 53.72466245 59.92880058 56.52141953 C62.11494858 58.70393317 64.29868392 60.88884839 66.48172379 63.07447052 C67.51347948 64.10688572 68.54595738 65.13857978 69.57921982 66.169487 C74.72759009 71.30867755 79.80106013 76.46847549 84.5083313 82.02081299 C86.0977407 83.8388546 87.77271863 85.5327539 89.49658203 87.22314453 C92.48892579 90.16914668 95.24982376 93.25297461 97.98876953 96.43408203 C99.94013388 98.65878925 101.93826659 100.83467718 103.95092773 103.00390625 C108.7589568 108.18788535 113.31508304 113.49764579 117.75048828 119.00830078 C120.08488793 121.82987948 122.51648801 124.52905165 124.99658203 127.22314453 C129.05641848 131.63954597 132.88982024 136.18477975 136.65673828 140.85205078 C138.73396182 143.40089769 140.84649294 145.91060778 142.98242188 148.40991211 C148.67077306 155.06698251 154.12945731 161.87654143 159.49707031 168.79394531 C161.08407931 170.8357143 162.67848058 172.87155577 164.27392578 174.90673828 C177.56890609 191.8920393 190.48377845 209.15358902 202.99658203 226.72314453 C203.52509766 227.46371094 204.05361328 228.20427734 204.59814453 228.96728516 C220.79118979 251.71186443 236.21509646 275.03907997 250.99658203 298.72314453 C251.64079102 299.75391113 252.285 300.78467773 252.94873047 301.84667969 C261.42947192 315.44468997 269.67826933 329.14224622 277.52685547 343.11474609 C279.04003559 345.80026378 280.5674717 348.47725022 282.09814453 351.15283203 C304.53223237 390.43570054 325.16857419 430.81985344 343.43994141 472.20849609 C344.88403482 475.46903071 346.34995255 478.71857765 347.82470703 481.96533203 C367.09695617 524.65406214 382.92989843 569.09259389 397.32202148 613.6362915 C397.98034743 615.6729204 398.64159879 617.70858111 399.30322266 619.74414062 C406.58583831 642.20389907 412.96037634 664.89929492 418.99658203 687.72314453 C419.20992187 688.52840576 419.42326172 689.33366699 419.64306641 690.16333008 C444.69835209 784.95903981 458.76260915 882.40190064 464.49926758 1007.58447266 C464.55807511 1009.93293344 464.62381043 1012.2811301 464.68994141 1014.62939453 C465.10462148 1031.00596619 464.99658203 1047.32269994 464.99658203 1063.72314453 C154.79658203 1063.72314453 -155.40341797 1063.72314453 -475.00341797 1063.72314453 C-475.00341797 919.57585039 -458.80155216 777.63181509 -413.00341797 628.72314453 C-412.69833313 627.7526416 -412.39324829 626.78213867 -412.07891846 625.78222656 C-394.8458962 571.08290043 -375.4788729 516.63368501 -350.95135498 464.73114014 C-349.97052487 462.65346775 -348.99450378 460.57359115 -348.01953125 458.49316406 C-320.59164356 399.99771919 -320.59164356 399.99771919 -308.99560547 380.27001953 C-307.2430485 377.24565916 -305.70677761 374.13245209 -304.16357422 370.99658203 C-301.20942314 365.04027492 -297.95588627 359.31499254 -294.56591797 353.59814453 C-293.32948383 351.49832971 -292.09383451 349.3980526 -290.85888672 347.29736328 C-290.22515137 346.22019043 -289.59141602 345.14301758 -288.93847656 344.03320312 C-286.35517118 339.61427122 -283.81667317 335.17030535 -281.27636719 330.7265625 C-274.94555908 319.66597134 -268.41377974 308.78629216 -261.51025391 298.07470703 C-259.95292581 295.64434665 -258.41743365 293.20128942 -256.88623047 290.75439453 C-243.41456789 269.28462379 -229.17294004 248.24081247 -214.38818359 227.65234375 C-212.90580217 225.58715016 -211.43127876 223.51645968 -209.95654297 221.44580078 C-201.55031531 209.68380393 -192.82539364 198.17550569 -184.00341797 186.72314453 C-183.38789063 185.92312012 -182.77236328 185.1230957 -182.13818359 184.29882812 C-174.382385 174.23096308 -166.48371857 164.29168416 -158.42724609 154.46289062 C-157.15115493 152.90366126 -155.88154415 151.33913353 -154.61279297 149.77392578 C-149.0491056 142.91938289 -143.31909498 136.21694998 -137.55615234 129.53027344 C-136.01695815 127.73890309 -134.48554678 125.94118566 -132.95654297 124.14111328 C-127.24895101 117.42971517 -121.43100407 110.85088769 -115.44873047 104.38330078 C-113.45181004 102.21093207 -111.49513063 100.0177529 -109.56591797 97.78564453 C-105.0912862 92.63559664 -100.44219874 87.64725881 -95.79678345 82.65194702 C-94.63693798 81.40450869 -93.47784879 80.15636657 -92.31967163 78.90737915 C-81.55772159 67.31570085 -70.4882852 56.05195091 -59.29150391 44.88085938 C-57.41662495 43.00959227 -55.54317293 41.13703987 -53.67236328 39.26171875 C-50.92081712 36.50397326 -48.16580795 33.74973563 -45.40966797 30.99658203 C-44.58245239 30.16734222 -43.75523682 29.33810242 -42.9029541 28.48373413 C-38.65086924 24.24864501 -34.33448524 20.16158892 -29.76452637 16.27017212 C-27.92969099 14.65837982 -26.21468764 12.96483777 -24.50341797 11.22314453 C-23.92591797 10.65466797 -23.34841797 10.08619141 -22.75341797 9.50048828 C-20.96616154 7.7301926 -20.96616154 7.7301926 -19.31591797 5.72705078 C-14.00932107 0.04304505 -7.676107 -1.55165286 0 0 Z M-26.21875 58.80908203 C-26.89680695 59.48398682 -27.57486389 60.1588916 -28.27346802 60.85424805 C-29.38116043 61.96497681 -29.38116043 61.96497681 -30.51123047 63.09814453 C-31.27007538 63.85603271 -32.02892029 64.6139209 -32.8107605 65.39477539 C-34.42438842 67.00772056 -36.03674522 68.6219382 -37.64794922 70.23730469 C-40.09347847 72.68812938 -42.54421363 75.13365425 -44.99560547 77.57861328 C-46.56363406 79.14730364 -48.1313519 80.7163047 -49.69873047 82.28564453 C-50.42504669 83.00993652 -51.15136292 83.73422852 -51.89968872 84.48046875 C-55.93012221 88.52913053 -59.79017231 92.66893213 -63.50778198 97.00732422 C-65.56153804 99.36342984 -67.76480935 101.54344666 -70.00341797 103.72314453 C-73.50592107 107.18883454 -76.82430061 110.72005245 -80.02685547 114.46142578 C-82.62727539 117.4370051 -85.31503371 120.32713759 -88.00341797 123.22314453 C-92.41861517 127.98928984 -96.7726455 132.79162299 -101.00341797 137.72314453 C-101.42026855 138.20831543 -101.83711914 138.69348633 -102.26660156 139.19335938 C-104.78502926 142.12495978 -107.2999781 145.05950109 -109.81201172 147.99658203 C-111.92372731 150.46488827 -114.04106437 152.92817762 -116.16357422 155.38720703 C-121.15253592 161.17264659 -126.08391736 166.98086102 -130.81982422 172.97705078 C-133.08321101 175.82349249 -135.37939086 178.64097945 -137.68066406 181.45678711 C-143.41262349 188.47542883 -149.03563089 195.55554305 -154.51757812 202.77197266 C-156.28160019 205.08844725 -158.05468426 207.39787318 -159.82763672 209.70751953 C-166.53507334 218.4584177 -173.19114641 227.22659256 -179.53857422 236.24267578 C-181.31166804 238.76004909 -183.11551572 241.25228833 -184.93701172 243.73486328 C-193.35306376 255.22425151 -201.2808506 267.0043335 -209.12695312 278.88867188 C-210.83003249 281.46123907 -212.54381931 284.02603943 -214.26513672 286.58642578 C-223.54437338 300.39266506 -232.59010747 314.368856 -241.00341797 328.72314453 C-237.98802506 329.7282755 -236.75391878 329.73882766 -233.69091797 329.38330078 C-192.32470295 325.02108619 -147.3826103 326.36978462 -107.00341797 336.72314453 C-105.43180219 337.10955718 -103.85983374 337.49453702 -102.28759766 337.87841797 C-77.93683541 343.85705687 -54.75451503 351.17679565 -31.93527222 361.62934875 C-28.52463528 363.16946163 -25.7481645 363.97419522 -22.00341797 364.72314453 C-22.00341797 262.75314453 -22.00341797 160.78314453 -22.00341797 55.72314453 C-23.84670195 55.72314453 -24.9841718 57.57614515 -26.21875 58.80908203 Z M10.99658203 55.72314453 C10.99658203 158.68314453 10.99658203 261.64314453 10.99658203 367.72314453 C17.59658203 364.75314453 24.19658203 361.78314453 30.99658203 358.72314453 C62.63669088 345.06037025 97.64772034 334.1751686 132.10644531 330.99853516 C135.50119809 330.6750615 138.88592774 330.28281553 142.27392578 329.89501953 C171.36813189 326.68878332 200.90462533 326.24577084 229.99658203 329.72314453 C228.28851082 324.66967941 225.42235547 320.42957498 222.55908203 315.97314453 C222.02702148 315.138396 221.49496094 314.30364746 220.94677734 313.44360352 C219.30180153 310.86681562 217.65019958 308.29439361 215.99658203 305.72314453 C215.49819824 304.94664551 214.99981445 304.17014648 214.48632812 303.37011719 C208.74374031 294.42966576 202.94670515 285.52722051 196.99658203 276.72314453 C196.53558105 276.04058594 196.07458008 275.35802734 195.59960938 274.65478516 C188.13480616 263.62089525 180.47884732 252.74603815 172.63476562 241.97900391 C170.96202084 239.67555207 169.30007413 237.36466515 167.64111328 235.05126953 C161.68752139 226.75345627 155.66212146 218.54041465 149.37451172 210.49121094 C147.81787021 208.49383358 146.27031828 206.48958265 144.72314453 204.48486328 C137.41920323 195.03540196 129.99151365 185.6995402 122.42041016 176.46289062 C121.14431899 174.90366126 119.87470822 173.33913353 118.60595703 171.77392578 C113.04226966 164.91938289 107.31225905 158.21694998 101.54931641 151.53027344 C100.01012221 149.73890309 98.47871084 147.94118566 96.94970703 146.14111328 C91.24211507 139.42971517 85.42416813 132.85088769 79.44189453 126.38330078 C77.4449741 124.21093207 75.48829469 122.0177529 73.55908203 119.78564453 C69.05190978 114.59814439 64.36956906 109.57249721 59.6875 104.54345703 C58.02563985 102.75442595 56.37231695 100.95778766 54.71923828 99.16064453 C45.40144938 89.09317829 35.74913863 79.36791386 26.05908203 69.66064453 C25.37307922 68.97205353 24.68707642 68.28346252 23.98028564 67.57400513 C22.02117786 65.60906474 20.05841884 63.64785644 18.09423828 61.68798828 C17.49393295 61.08570404 16.89362762 60.4834198 16.27513123 59.86288452 C14.00259225 57.03904715 14.00259225 57.03904715 10.99658203 55.72314453 Z M-226.61181641 361.69458008 C-230.05601355 362.04093362 -233.50195661 362.36254279 -236.94873047 362.68212891 C-239.17543373 362.89878603 -241.40200239 363.11683204 -243.62841797 363.33642578 C-244.64097656 363.43031082 -245.65353516 363.52419586 -246.69677734 363.6209259 C-257.15876376 364.54063787 -257.15876376 364.54063787 -265.94873047 369.65136719 C-266.33802734 370.38919434 -266.72732422 371.12702148 -267.12841797 371.88720703 C-267.59868408 372.74564209 -268.0689502 373.60407715 -268.5534668 374.48852539 C-269.03195068 375.43219971 -269.51043457 376.37587402 -270.00341797 377.34814453 C-270.53539795 378.34144775 -271.06737793 379.33475098 -271.61547852 380.3581543 C-273.11132424 383.17174349 -274.57803696 385.99835556 -276.03167725 388.83392334 C-277.0532661 390.82005736 -278.08486864 392.80071612 -279.11914062 394.78027344 C-285.94434107 407.843487 -292.64383846 420.96730342 -299.21968079 434.15776062 C-301.00057845 437.72772152 -302.79804551 441.28756548 -304.62841797 444.83251953 C-312.43345245 460.02292814 -319.30939234 475.6099324 -326.15577698 491.24845886 C-328.16701352 495.83832949 -330.2117975 500.41077205 -332.28466797 504.97314453 C-332.76154053 506.03412354 -333.23841309 507.09510254 -333.72973633 508.18823242 C-334.59299094 510.10859144 -335.46557084 512.02479789 -336.34936523 513.93579102 C-336.7211792 514.77182861 -337.09299316 515.60786621 -337.47607422 516.46923828 C-337.79842041 517.17749756 -338.1207666 517.88575684 -338.45288086 518.61547852 C-340.17743686 525.21773659 -335.18227576 532.84778171 -332.62841797 538.78564453 C-332.36020233 539.41084991 -332.09198669 540.0360553 -331.81564331 540.6802063 C-326.89286264 552.10228966 -321.37580139 563.03777152 -315.00341797 573.72314453 C-314.2198291 575.03968018 -314.2198291 575.03968018 -313.42041016 576.3828125 C-303.31329978 593.2490154 -292.30458123 608.70188914 -279.65820312 623.74365234 C-278.18761922 625.50279875 -276.73759113 627.27586935 -275.29638672 629.05908203 C-265.54932579 641.01545191 -254.5359132 652.14593305 -242.78540039 662.13500977 C-240.91240657 663.80425553 -239.21037962 665.5731386 -237.50341797 667.41064453 C-231.89794657 673.11601542 -225.29809013 677.62694044 -218.86669922 682.34277344 C-215.69102129 684.69540486 -212.59770466 687.15084774 -209.50732422 689.61376953 C-208.18076271 690.82208232 -208.18076271 690.82208232 -207.00341797 690.72314453 C-206.90843018 689.81886719 -206.81344238 688.91458984 -206.71557617 687.98291016 C-204.72485351 669.33509619 -202.52623903 650.95616241 -198.00341797 632.72314453 C-197.66160056 631.31107951 -197.31997833 629.89896724 -196.97851562 628.48681641 C-184.27202723 576.41607609 -162.70986629 525.7788181 -128.75927734 483.91601562 C-126.91500008 481.61272052 -125.11890897 479.27786684 -123.33154297 476.93017578 C-112.4436851 462.64330923 -112.4436851 462.64330923 -106.16357422 456.84033203 C-104.296404 455.01030263 -102.62145231 453.14645216 -100.92138672 451.16455078 C-96.71266475 446.31036059 -92.22225073 441.75589627 -87.68017578 437.21459961 C-86.2642185 435.79646169 -84.85643508 434.37017788 -83.44873047 432.94384766 C-77.28156652 426.76379966 -70.8662008 421.11709188 -64.00341797 415.72314453 C-63.39062988 415.23612061 -62.7778418 414.74909668 -62.14648438 414.24731445 C-53.9699531 407.78981427 -45.51825901 401.72310748 -37.00341797 395.72314453 C-50.92071855 384.03993694 -72.16760537 379.85829079 -89.296875 374.81738281 C-92.44411286 373.88826148 -95.58171989 372.93358408 -98.71826172 371.96923828 C-124.152166 364.36456826 -151.49579712 360.33369127 -178.00341797 359.72314453 C-179.2843634 359.69303787 -179.2843634 359.69303787 -180.59118652 359.662323 C-196.04630938 359.35645891 -211.23666391 360.13900003 -226.61181641 361.69458008 Z M170.56481934 359.7805481 C165.57320631 359.9087818 160.60098929 360.1656137 155.62158203 360.53564453 C154.85752045 360.59194031 154.09345886 360.64823608 153.3062439 360.70623779 C110.33694124 364.09481773 68.85992446 376.54804084 29.99658203 394.72314453 C33.93889732 398.95805354 38.22177829 402.10511412 42.99658203 405.34814453 C53.37330673 412.54242064 62.96650285 420.3060719 71.70361328 429.45751953 C73.65854124 431.38913489 75.65208673 433.17908941 77.73095703 434.97314453 C82.14169449 438.80216195 86.30726229 442.84163202 90.43408203 446.97314453 C91.18125488 447.72112305 91.92842773 448.46910156 92.69824219 449.23974609 C97.39293335 453.98663461 101.77563236 458.79858327 105.89501953 464.05517578 C107.89503827 466.59423302 109.96396466 469.04926244 112.07006836 471.49975586 C120.00355571 480.73670853 127.25160968 490.3687835 133.91455078 500.56689453 C135.34832677 502.7404236 136.79801935 504.87798416 138.29736328 507.00439453 C145.97307143 517.99559939 152.02805328 529.73787597 157.99658203 541.72314453 C158.49399902 542.72071777 158.99141602 543.71829102 159.50390625 544.74609375 C160.97323356 547.71125313 162.42633526 550.68368109 163.87158203 553.66064453 C164.29947021 554.53398438 164.7273584 555.40732422 165.16821289 556.30712891 C171.2467911 569.0187064 175.70990626 582.48031774 180.30151367 595.78515625 C180.80453849 597.23797881 181.31134724 598.68949701 181.82202148 600.13964844 C188.2050377 618.26880432 192.41490148 636.48864067 195.30957031 655.48144531 C195.75182897 658.38256326 196.20710783 661.2814167 196.66455078 664.18017578 C196.95825946 666.06157083 197.25125473 667.94307743 197.54345703 669.82470703 C197.67572693 670.67279938 197.80799683 671.52089172 197.9442749 672.39468384 C198.71758472 677.48391201 199.30290828 682.55802241 199.73126221 687.68832397 C199.89181714 689.78679349 199.89181714 689.78679349 200.99658203 691.72314453 C203.6740263 690.45316858 206.02982376 689.07212067 208.39501953 687.28955078 C209.35045654 686.5724292 209.35045654 686.5724292 210.32519531 685.84082031 C211.00050293 685.3276123 211.67581055 684.8144043 212.37158203 684.28564453 C213.07911621 683.7492334 213.78665039 683.21282227 214.515625 682.66015625 C215.97485436 681.55129853 217.43269565 680.44061182 218.88916016 679.328125 C220.80776605 677.86694391 222.73661253 676.42064433 224.66845703 674.97705078 C232.35875309 669.16083331 239.15483539 662.77861779 245.87939453 655.87548828 C248.23716088 653.46205441 250.65767026 651.20346824 253.24658203 649.03564453 C261.0630154 642.36429376 267.44613142 634.30311119 273.68164062 626.18652344 C276.58017903 622.43933663 279.61211682 618.87749925 282.78857422 615.36376953 C290.12447913 607.21373155 295.86628891 598.49118388 301.52148438 589.11865234 C302.94108367 586.81327196 304.41544958 584.55813186 305.92236328 582.30908203 C312.27381938 572.75767979 317.59718836 562.86258776 322.55908203 552.53564453 C323.01187531 551.59437714 323.01187531 551.59437714 323.47381592 550.63409424 C324.88604908 547.68479444 326.26752598 544.72601689 327.61035156 541.74438477 C328.99658203 538.72314453 328.99658203 538.72314453 330.23828125 536.54760742 C331.93944429 533.28996128 332.18135949 531.48496917 331.3034668 527.86547852 C330.02214977 524.34443734 328.54780725 520.94281697 326.99658203 517.53564453 C326.43277239 516.24632324 325.87120937 514.95601744 325.31176758 513.66479492 C323.85438981 510.31960689 322.36456075 506.98993524 320.8661499 503.66296387 C319.52136489 500.66303706 318.20797649 497.64947353 316.89111328 494.63720703 C301.80630846 460.35071777 285.70832492 426.41796166 267.59228516 393.62792969 C264.05192513 387.18313109 260.57839496 380.70159181 257.09643555 374.22509766 C256.5749292 373.25894531 256.05342285 372.29279297 255.51611328 371.29736328 C254.82159058 370.007052 254.82159058 370.007052 254.11303711 368.69067383 C253.14686315 366.78475167 253.14686315 366.78475167 251.99658203 365.72314453 C250.44623261 365.45363414 248.88544398 365.24382143 247.32275391 365.05883789 C246.32240112 364.93878891 245.32204834 364.81873993 244.29138184 364.6950531 C242.64498718 364.50593102 242.64498718 364.50593102 240.96533203 364.31298828 C239.82745239 364.18122696 238.68957275 364.04946564 237.51721191 363.91371155 C235.08614658 363.63467489 232.65477832 363.35826724 230.22314453 363.08422852 C226.59386635 362.67170246 222.96724992 362.23984091 219.34033203 361.80712891 C202.98755634 359.91901974 187.00685315 359.39242168 170.56481934 359.7805481 Z M10.99658203 422.72314453 C10.99658203 532.28314453 10.99658203 641.84314453 10.99658203 754.72314453 C36.96379206 753.21759924 36.96379206 753.21759924 62.49658203 749.53564453 C63.37048584 749.37107758 64.24438965 749.20651062 65.14477539 749.03695679 C96.71923922 742.99948331 128.08496443 733.22409781 156.47998047 718.03027344 C160.23911837 716.07776817 164.09960501 714.37975176 167.99658203 712.72314453 C167.76645746 706.04953191 167.41472779 699.38759139 166.99658203 692.72314453 C166.92632813 691.60327148 166.85607422 690.48339844 166.78369141 689.32958984 C165.0125478 663.25921989 160.2847509 637.50400141 152.49658203 612.53564453 C152.26100586 611.77952881 152.02542969 611.02341309 151.78271484 610.24438477 C147.01100554 596.01104876 139.98698102 582.40904419 133.56933594 568.86328125 C132.49399122 566.59267399 131.42282209 564.32013026 130.35205078 562.04736328 C126.85806016 554.64602492 123.31895588 547.26731146 119.69189453 539.93017578 C119.2143573 538.9541188 119.2143573 538.9541188 118.72717285 537.95834351 C116.37342959 533.23510017 113.58857947 529.11464513 110.37548828 524.94580078 C107.76140736 521.49960315 105.45550357 517.8618769 103.10400391 514.23388672 C96.86399883 504.63622929 90.2428011 495.89339287 82.53613281 487.44091797 C81.03413677 485.76504671 79.58483208 484.05737063 78.14892578 482.32470703 C67.48321455 469.46544338 55.80722315 457.08042595 42.61767578 446.78173828 C40.14136178 444.83685381 37.75288762 442.81119399 35.37182617 440.75146484 C29.99598183 436.10968127 24.47385312 431.73737638 18.74658203 427.53564453 C18.09012695 427.05369629 17.43367188 426.57174805 16.75732422 426.07519531 C14.11832466 423.76431405 14.11832466 423.76431405 10.99658203 422.72314453 Z M-27.60107422 429.32080078 C-28.31561768 429.87131104 -29.03016113 430.42182129 -29.76635742 430.98901367 C-30.90463989 431.87834595 -30.90463989 431.87834595 -32.06591797 432.78564453 C-33.22837036 433.68754517 -33.22837036 433.68754517 -34.41430664 434.60766602 C-35.94193632 435.79307583 -37.46841996 436.97996427 -38.99365234 438.16845703 C-40.55004394 439.37242954 -42.12472331 440.55278085 -43.70654297 441.72314453 C-48.80679056 445.50110571 -53.19707059 449.79881725 -57.63134766 454.31884766 C-60.35606654 457.09405654 -63.10027909 459.76363606 -66.06591797 462.28564453 C-74.11806446 469.18509785 -81.24677042 476.77374867 -87.83935547 485.06689453 C-89.88668918 487.57986732 -92.03195914 489.92685916 -94.25341797 492.28564453 C-121.89481266 522.72007214 -141.64918917 562.32650561 -154.68432617 600.90209961 C-155.64193544 603.71332056 -156.65434884 606.50019932 -157.68774414 609.28442383 C-161.8205425 620.52682625 -164.89827772 631.71078239 -167.2668457 643.44995117 C-167.81589296 646.16052109 -168.3915252 648.86446898 -168.97021484 651.56884766 C-172.39387146 667.92780587 -174.03693166 684.33847898 -174.62841797 701.03564453 C-174.66708984 701.99019531 -174.70576172 702.94474609 -174.74560547 703.92822266 C-174.83665389 706.19305225 -174.92273987 708.45792644 -175.00341797 710.72314453 C-170.99277732 712.77874289 -166.97647716 714.82273914 -162.95507812 716.85717773 C-161.59418144 717.54754562 -160.23474594 718.24080321 -158.87695312 718.93725586 C-150.40254286 723.2810968 -142.0098996 727.01603254 -132.96112061 730.04898071 C-130.81545193 730.78787341 -128.69038801 731.57259763 -126.56445312 732.36645508 C-102.17482614 741.45372344 -78.03538074 747.52810195 -52.31591797 751.16064453 C-51.64299461 751.25575821 -50.97007126 751.35087189 -50.27675629 751.4488678 C-36.19079413 753.74030795 -36.19079413 753.74030795 -22.00341797 754.72314453 C-22.00341797 646.48314453 -22.00341797 538.24314453 -22.00341797 426.72314453 C-24.67439438 426.72314453 -25.50163459 427.69169442 -27.60107422 429.32080078 Z M-357.00341797 566.72314453 C-389.73031749 658.94089106 -415.09048053 752.94298535 -441.00341797 973.72314453 C-441.11517852 975.64893848 -441.22714902 977.57472026 -441.33935547 979.50048828 C-442.23336484 996.61955964 -442.00341797 1013.5122679 -442.00341797 1030.72314453 C-314.95341797 1030.72314453 -187.90341797 1030.72314453 -57.00341797 1030.72314453 C-60.15626918 1027.57029332 -62.95559797 1025.24832418 -66.52685547 1022.67626953 C-75.46540157 1015.98308569 -83.19225027 1007.98358641 -91.04248047 1000.07519531 C-93.61995267 997.48166258 -96.21304903 994.90453793 -98.80810547 992.32861328 C-107.89942451 983.24911785 -116.41998915 974.10055817 -124.00341797 963.72314453 C-124.6110498 962.91151855 -125.21868164 962.09989258 -125.84472656 961.26367188 C-127.37801404 959.20249344 -128.88446863 957.12545961 -130.37841797 955.03564453 C-130.9145874 954.28710205 -131.45075684 953.53855957 -132.00317383 952.76733398 C-133.67572123 950.42333128 -135.34032292 948.07386071 -137.00341797 945.72314453 C-137.54788574 944.9584082 -138.09235352 944.19367188 -138.65332031 943.40576172 C-153.78095852 922.08770514 -165.32055016 899.49793033 -176.00341797 875.72314453 C-176.62240967 874.36576172 -176.62240967 874.36576172 -177.25390625 872.98095703 C-183.76097829 858.66366102 -188.52033931 843.78185789 -193.00341797 828.72314453 C-193.28958984 827.76972168 -193.57576172 826.81629883 -193.87060547 825.83398438 C-197.97078521 811.84110612 -200.38942398 797.52716506 -202.75341797 783.16064453 C-202.99396912 781.73043472 -202.99396912 781.73043472 -203.23937988 780.27133179 C-204.83464273 770.68565261 -206.26869095 761.32708209 -206.01123047 751.59033203 C-205.19268271 738.50164296 -205.19268271 738.50164296 -210.26318359 726.97314453 C-216.20464402 721.76062271 -222.90106118 718.03616017 -229.88574219 714.40332031 C-234.12297478 712.11979371 -237.89501609 709.41779153 -241.69091797 706.47314453 C-242.31434082 706.00215332 -242.93776367 705.53116211 -243.58007812 705.04589844 C-249.9564248 700.1541533 -255.75355659 694.64970627 -261.55224609 689.09765625 C-263.4095674 687.3384505 -265.31970035 685.64774399 -267.25341797 683.97314453 C-267.86056641 683.44591797 -268.46771484 682.91869141 -269.09326172 682.37548828 C-270.50085184 681.15787965 -271.90992714 679.94198739 -273.31982422 678.72705078 C-279.52613977 673.27831365 -285.11111313 667.41102205 -290.60791016 661.26708984 C-291.98542816 659.74304788 -293.38395443 658.24196883 -294.79248047 656.74658203 C-300.83706386 650.31192266 -306.34573875 643.59936847 -311.63623047 636.52734375 C-313.10000382 634.5956857 -314.59513996 632.69159549 -316.09716797 630.78955078 C-328.25742028 615.32116915 -338.12201976 598.92164124 -347.28442383 581.5300293 C-351.27060609 573.89766513 -351.27060609 573.89766513 -356.00341797 566.72314453 C-356.33341797 566.72314453 -356.66341797 566.72314453 -357.00341797 566.72314453 Z M347.99658203 574.72314453 C347.48442139 575.64256836 347.48442139 575.64256836 346.96191406 576.58056641 C328.50940079 609.64054664 328.50940079 609.64054664 317.28173828 624.05957031 C315.82592628 625.94405036 314.39504489 627.84613571 312.96533203 629.75048828 C304.21386992 641.3725354 295.25097936 652.79565761 284.78564453 662.93798828 C282.94497938 664.77463452 281.25103107 666.68670399 279.55908203 668.66064453 C273.2583177 675.94279203 266.44819973 682.27956715 258.93017578 688.28564453 C256.32414545 690.45097466 253.86258854 692.68728314 251.40820312 695.01806641 C237.69606439 708.03099074 222.0752911 718.14385853 206.19458008 728.30957031 C204.45112144 729.43082162 202.72132666 730.57331478 200.99658203 731.72314453 C200.5281503 734.76795079 200.24757758 737.65020215 200.07470703 740.71533203 C199.94046448 742.61757888 199.80524956 744.51975729 199.66918945 746.421875 C199.60154388 747.42780701 199.53389832 748.43373901 199.46420288 749.47015381 C195.40172833 807.86245731 178.35409652 863.04194575 150.25048828 914.42626953 C149.58409332 915.64524933 149.58409332 915.64524933 148.90423584 916.88885498 C144.89533324 924.10719964 140.33551798 930.86043445 135.53125 937.56738281 C133.81392059 939.97973068 132.12455683 942.41029015 130.43798828 944.84423828 C129.20767653 946.6164827 127.97720961 948.3886194 126.74658203 950.16064453 C126.18028076 950.97726562 125.61397949 951.79388672 125.03051758 952.63525391 C121.18657922 958.13636178 117.17020363 963.4681985 112.99658203 968.72314453 C111.79775391 970.23521484 111.79775391 970.23521484 110.57470703 971.77783203 C104.09811043 979.623642 97.07478313 986.8032334 89.81005859 993.92382812 C85.51920538 998.13923191 81.43595095 1002.43041502 77.51611328 1006.99243164 C71.66140509 1013.66081634 64.44819209 1019.05592136 57.375 1024.36132812 C54.70838391 1026.36598925 52.36612485 1028.35360171 49.99658203 1030.72314453 C175.72658203 1030.72314453 301.45658203 1030.72314453 430.99658203 1030.72314453 C431.0852112 998.56874699 431.0852112 998.56874699 429.74658203 966.53564453 C429.61013467 964.37386923 429.47382663 962.21208512 429.33764648 960.05029297 C423.14318482 863.85818143 407.16820726 768.47368651 348.99658203 574.72314453 C348.66658203 574.72314453 348.33658203 574.72314453 347.99658203 574.72314453 Z M-174.00341797 748.72314453 C-173.01160025 787.99912609 -161.80586066 826.98564943 -146.00341797 862.72314453 C-145.52662598 863.82287598 -145.04983398 864.92260742 -144.55859375 866.05566406 C-131.12385855 896.93043924 -113.4794868 927.27073004 -90.45654297 952.02392578 C-88.1131614 954.60239181 -85.92557677 957.24990099 -83.75341797 959.97314453 C-75.65910131 969.95518169 -67.06409768 979.49536803 -56.91357422 987.41845703 C-53.34447387 990.24499288 -49.92874527 993.22533929 -46.50341797 996.22314453 C-40.43490824 1001.51427048 -34.30637453 1006.71115497 -28.00341797 1011.72314453 C-27.28541016 1012.29806641 -26.56740234 1012.87298828 -25.82763672 1013.46533203 C-24.0982984 1014.91236139 -24.0982984 1014.91236139 -22.00341797 1014.72314453 C-22.00341797 939.48314453 -22.00341797 864.24314453 -22.00341797 786.72314453 C-35.86341797 785.40314453 -49.72341797 784.08314453 -64.00341797 782.72314453 C-71.21938747 781.55692724 -78.2305232 780.37693433 -85.31591797 778.72314453 C-86.15245911 778.5363916 -86.98900024 778.34963867 -87.85089111 778.15722656 C-112.89318532 772.56003758 -137.92881413 765.08312654 -160.98974609 753.70361328 C-163.27572012 752.590559 -165.57844291 751.52317797 -167.89404297 750.47314453 C-168.63170898 750.13798828 -169.369375 749.80283203 -170.12939453 749.45751953 C-171.97830974 748.60152565 -171.97830974 748.60152565 -174.00341797 748.72314453 Z M160.58642578 752.29345703 C128.43430137 767.40212942 94.61563309 776.93846341 59.55908203 782.47314453 C58.55210266 782.63240417 57.54512329 782.79166382 56.50762939 782.95574951 C41.37423365 785.29827753 26.29459857 786.49930321 10.99658203 787.72314453 C10.99658203 863.29314453 10.99658203 938.86314453 10.99658203 1016.72314453 C13.85094647 1015.29596231 16.1861265 1013.99011185 18.75439453 1012.18408203 C19.45741699 1011.69020996 20.16043945 1011.19633789 20.88476562 1010.6875 C21.62291504 1010.1630127 22.36106445 1009.63852539 23.12158203 1009.09814453 C24.26554443 1008.28627686 24.26554443 1008.28627686 25.43261719 1007.45800781 C34.2513934 1001.16102314 42.45026143 994.43417124 50.41455078 987.08251953 C52.54827474 985.13279295 54.71796614 983.26429012 56.93408203 981.41064453 C65.46557704 973.98055155 72.79626033 965.12783956 79.85595703 956.32861328 C81.97176085 953.75335571 84.17633924 951.29929536 86.43408203 948.84814453 C111.18747805 921.52519183 129.2032628 887.30973275 142.49658203 853.16064453 C142.8246283 852.32143463 143.15267456 851.48222473 143.49066162 850.61758423 C151.61971995 829.79755437 158.12192248 809.78931528 161.99658203 787.72314453 C162.22651855 786.43375977 162.45645508 785.144375 162.69335938 783.81591797 C163.41347378 779.76667855 164.1140428 775.71425303 164.80908203 771.66064453 C165.13803467 769.76100952 165.13803467 769.76100952 165.47363281 767.82299805 C166.49144704 761.70748714 167.26751878 755.92372548 166.99658203 749.72314453 C164.83603405 749.72314453 162.45680843 751.39008987 160.58642578 752.29345703 Z " fill="#FFFFFF" transform="translate(546.00341796875,8.27685546875)"/>
</svg>
